# xmcd
#
# Track frame offsets:
#	150
#	15952
#	33201
#	46956
#	62050
#	73330
#	88226
#	100383
#	113432
#	131864
#	145537
#	161649
#	174863
#	183008
#	198756
#	212406
#	227567
#	239767
#	252777
#	271323
#
# Disc length: 3798 seconds
#
# Revision: 1
# Processed by: cddbd v1.5.2PL0 Copyright (c) Steve Scherf et al.
# Submitted via: audiograbber 1.83.01
#
DISCID=090ed414
DTITLE=ELIANA SABKA - UNIDOS PELO AMOR DE DEUS
DYEAR=1900
DGENRE=EVANGÉLICA
TTITLE0=UNIDOS PELO AMOR DE DEUS
TTITLE1=DIANTE DO ALTAR
TTITLE2=PAI NOSSO
TTITLE3=BANÇÃO EU QUERO SER
TTITLE4=UM SÓ AMOR! UM SÓ SENHOR!
TTITLE5=JÓIA RARA
TTITLE6=ELE NOS AMOU PRIMEIRO
TTITLE7=VERDADEIRO AMOR
TTITLE8=VEM, SENHOR, ABENÇOAR
TTITLE9=NAS TUAS MÃOS, SENHOR
TTITLE10=BEM-AVENTURADO LAR!
TTITLE11=TUA PALAVRA É NOSS FORÇA
TTITLE12=QUE BOM TE ENCONTRAR
TTITLE13=UNIDOS PELO AMOR DE DEUS
TTITLE14=PAI NOSSO
TTITLE15=BANÇÃO EU QUERO SER
TTITLE16=ELE NOS AMOU PRIMEIRO
TTITLE17=VERDADEIRO AMOR
TTITLE18=NAS TUAS MÃOS, SENHOR
TTITLE19=NAS TUAS MÃOS, SENHOR
EXTD=
EXTT0=
EXTT1=
EXTT2=
EXTT3=
EXTT4=
EXTT5=
EXTT6=
EXTT7=
EXTT8=
EXTT9=
EXTT10=
EXTT11=
EXTT12=
EXTT13=
EXTT14=
EXTT15=
EXTT16=
EXTT17=
EXTT18=
EXTT19=
PLAYORDER=
